<svg xmlns="http://www.w3.org/2000/svg" x="0px" y="0px" viewBox="0 0 35 35" fill="#000">
<style>
    @media (prefers-color-scheme:dark){:root{filter:invert(100%)}}
</style>
<path fill="currentColor" d="M25.7,22h-9.4l0,3.3c2.5,0,8.6,0,10.9,0l0.8,0c-0.3,0.5-0.7,1-1.1,1.4c-3.5,3.6-7.9,3.6-7.9,3.6
        c-3.8-0.2-5.2-1.6-5.4-4.5v-9.5h0.4c0.6,0.2,2.1,0.8,2.3,3.4h2.8v-3.5c0,0,0.1,0,0.1,0c0,0,0,0,0,0c0.6,0.1,2.3,0.6,2.3,3.4h2.8
        v-3.4h9.5C33.4,9.6,28.8,3.9,22.5,1.9c0,0,0,0,0,0c-0.7-0.2-1.5-0.4-2.3-0.6c-0.4-0.1-0.8-0.1-1.1-0.1l0.1,5.1l-5.5-4.7
        c0,0-0.1,0-0.1,0C7.2,3.2,2.4,8.5,1.4,15c-0.1,0.8-0.2,1.7-0.2,2.5c0,0.9,0.1,1.7,0.2,2.5c0,0,0,0.1,0,0.1c0.2,1,0.4,1.9,0.7,2.8
        c0.5,1.5,1.3,2.8,2.2,4.1c0,0.1,0.1,0.1,0.1,0.2c2.6,3.5,6.7,5.8,11.1,6.3c0.3,0,0.7,0.1,1.2,0.1c7.1,0.4,13.7-3.8,16.2-10.5
        c0.1-0.4,0.3-0.8,0.4-1.2C32.3,22,29.1,22,25.7,22L25.7,22L25.7,22z M26.4,9.2c1.1,0,2.1,0.9,2.1,2.1s-0.9,2.1-2.1,2.1
        c-1.1,0-2.1-0.9-2.1-2.1S25.2,9.2,26.4,9.2z"/>
</svg>